<?xml version="1.0" encoding="utf-8"?>
<!-- Generator: Adobe Illustrator 20.1.0, SVG Export Plug-In . SVG Version: 6.00 Build 0)  -->
<svg version="1.1" id="Layer_1" xmlns="http://www.w3.org/2000/svg" xmlns:xlink="http://www.w3.org/1999/xlink" x="0px" y="0px"
	 viewBox="0 0 334.9 90.3" style="enable-background:new 0 0 334.9 90.3;" xml:space="preserve">
<style type="text/css">
	.st0{fill:#F44336;}
	.st1{fill:#FFFFFF;}
</style>
<path class="st0" d="M33.1,26.5c1.3-0.4,1.8-1.4,1.9-2.9l-1.2-21c0-0.2-0.2-0.3-0.4-0.3C25.7,4.4,19,8.4,13.7,13.7
	c-0.7,0.7-0.5,2,0.4,2.4l16.7,10C31.6,26.5,32.2,26.7,33.1,26.5z"/>
<path class="st0" d="M28.1,30.4c0.1-0.6-0.4-1.2-1.4-1.9l-15.5-9.9c-0.6-0.4-1.5-0.2-1.9,0.4c-3.5,4.8-6,10.3-7.4,16.1
	c-0.1,0.5,0.4,1,0.9,0.8l23.5-4.2C27.3,31.4,28,30.9,28.1,30.4z"/>
<g>
	<path class="st0" d="M24.2,52.7c-0.2-0.7-1.1-0.8-1.6-0.3c0,0-12.4,12.5-14.9,15.2c-0.3,0.3-0.3,0.8-0.1,1.2c1.4,2.2,3,4.3,4.7,6.2
		c0.4,0.5,1.1,0.6,1.7,0.4l21.1-9.5c0.4-0.2,0.4-0.7,0-0.9C30.2,62.5,26.2,58.2,24.2,52.7z"/>
	<path class="st0" d="M24,38.2c0.2-0.5-0.3-1-0.8-1c0,0-16.4,1.4-20.8,2.1c-0.7,0.1-1.3,0.7-1.4,1.5c-0.5,5.1-0.1,10.3,1.2,15.5
		c0.6,2.3,1.4,4.5,2.3,6.6c0.5,1.1,2,1.3,2.7,0.3l15.2-17.4c0.3-0.4,0.5-0.9,0.5-1.3C22.9,42.4,23.3,40.3,24,38.2z"/>
	<path class="st0" d="M48.8,68.1c-1-0.6-2.2-0.8-3.5-0.4c0,0-19.9,7.8-27.4,10c-1,0.3-1.2,1.6-0.4,2.2c9.7,7.7,22.4,11.2,35.2,9
		c1.2-0.2,1.9-1.3,1.7-2.5l-3.6-15.5C50.5,69.7,49.8,68.7,48.8,68.1z"/>
	<path class="st0" d="M59.6,62.5c-2.6,0.7-4.5,3.5-4.3,6.3l2.5,16.7c0.1,1.1,1.2,1.8,2.2,1.5c7.1-2.6,13.3-6.9,18.1-12.4
		c0.7-0.7,0.4-1.9-0.4-2.4l-15.6-9.4C61.3,62.4,60.5,62.2,59.6,62.5L59.6,62.5z"/>
</g>
<path class="st0" d="M66.5,6.5c-0.7-0.4-1.5-0.2-2,0.4L51.8,22.2c-0.7,0.8-0.4,2,0.6,2.4c3.2,1.2,6.1,3.1,8.4,5.6
	c0.5,0.6,1.4,0.6,2.1,0.1L77.8,18c0.7-0.6,0.8-1.7,0.2-2.4C74.7,11.9,70.8,8.9,66.5,6.5z"/>
<path class="st0" d="M37.3,2.9c0.3,3.9,1.5,15.8,1.9,19.4c0.1,0.8,0.8,1.4,1.6,1.2c0.5-0.1,1-0.2,1.4-0.2c0.8-0.1,1.5-0.4,2.1-1
	L61.1,4.7C61.4,4.4,61.3,4,61,3.8c-7.1-2.8-15-3.7-22.9-2.4C37.5,1.5,37.3,2.3,37.3,2.9z"/>
<path class="st1" d="M151.9,75.4c-12.4,0-21.5-9.3-21.5-21.4c0-12,9.1-21.4,21.5-21.4c12.3,0,21.4,9.4,21.4,21.4
	C173.3,66.1,164.2,75.4,151.9,75.4z M151.9,40.4c-7.4,0-10.4,5.5-10.4,13.6c0,8.1,2.9,13.6,10.4,13.6c7.4,0,10.3-5.4,10.3-13.6
	C162.2,46,159.3,40.4,151.9,40.4z"/>
<path class="st1" d="M233.8,41.1v32.8h-10.7V41.1h-5.5c-1.1,0-2-0.9-2-2v-5h7.5v-0.4c0-11.6,5.9-16.1,15.4-16.1
	c1.8,0,4.3,0.5,5.4,0.7l0,4.4c0,1.2-1.1,2.1-2.3,2c-0.5-0.1-1-0.1-1.5-0.1c-4.5,0-6.4,1.9-6.4,8.9v0.6h9.6v7H233.8z"/>
<path class="st1" d="M276.1,72l-0.3-4.4c-3.3,4.9-9.2,7.5-14.9,7.5c-10.8,0-18.7-9-18.7-21s7.9-21,18.7-21c5.6,0,11.5,2.6,14.9,7.5
	l0.3-4.5c0.1-1,0.9-1.8,1.9-1.8h7.8v39.8c0,0,0,0.1-0.1,0.1h-7.7C277,73.9,276.1,73.1,276.1,72z M264.3,40.9
	c-6.8,0-11.3,4.9-11.3,13.1s4.5,13.1,11.3,13.1c6.9,0,11.3-4.9,11.3-13.1S271.2,40.9,264.3,40.9z"/>
<path class="st1" d="M315.4,75c-5.6,0-11.5-2.6-14.9-7.5l-0.3,4.5c-0.1,1-0.9,1.8-2,1.8h-7.8V18.6h10.7v20.9
	c3.4-4.3,8.9-6.6,14.2-6.6c10.8,0,18.7,9,18.7,21S326.2,75,315.4,75z M312.1,40.9c-6.9,0-11.3,4.9-11.3,13.1s4.5,13.1,11.3,13.1
	c7,0,11.3-4.9,11.3-13.1S319.1,40.9,312.1,40.9z"/>
<path class="st1" d="M114.8,66.1c-10.7,0-18.5-7.5-18.5-19.8c0-12.5,7.9-19.8,18.5-19.8c3.7,0,7,0.7,9.9,1.9c0.7,0.3,1.5,0.1,2-0.4
	l5.5-5.1c-4.5-3.5-11.6-5.5-18.6-5.5c-15.5,0-28.8,11-28.8,28.9c0,17.9,13.3,28.9,28.8,28.9c6.9,0,13.5-1.8,18.1-5.2l-2.8-5.6
	c-0.5-1-1.7-1.4-2.6-0.9C123,65.1,119.4,66.1,114.8,66.1z"/>
<path class="st1" d="M200.7,33c-5.9,0-11.7,3.4-14.3,8.5l-0.9-5.7c-0.2-1-1-1.7-2-1.7h-7v39.9h10.4V51.7c0-5.5,5.4-10.1,10.3-10.1
	c4.7,0,7.3,2.6,7.3,10.3v22h10.4V50.2C214.8,40.3,211,33,200.7,33z"/>
</svg>
